<svg width="50" height="51" viewBox="0 0 50 51" fill="none" xmlns="http://www.w3.org/2000/svg">
<path d="M43.75 0.25C45.4102 0.25 46.875 0.933594 48.1445 2.10547C49.3164 3.375 50 4.83984 50 6.5V34.625C50 36.3828 49.3164 37.8477 48.1445 39.0195C46.875 40.2891 45.4102 40.875 43.75 40.875H29.6875L17.4805 50.0547C17.2852 50.25 16.9922 50.25 16.6992 50.25C16.4062 50.25 16.1133 50.1523 15.918 49.957C15.7227 49.7617 15.625 49.4688 15.625 49.0781V40.875H6.25C4.49219 40.875 3.02734 40.2891 1.85547 39.0195C0.585938 37.8477 0 36.3828 0 34.625V6.5C0 4.83984 0.585938 3.375 1.85547 2.10547C3.02734 0.933594 4.49219 0.25 6.25 0.25H43.75ZM46.875 34.625V6.5C46.875 5.71875 46.4844 4.9375 45.8984 4.35156C45.3125 3.76562 44.5312 3.375 43.75 3.375H6.25C5.37109 3.375 4.58984 3.76562 4.00391 4.35156C3.41797 4.9375 3.125 5.71875 3.125 6.5V34.625C3.125 35.5039 3.41797 36.2852 4.00391 36.8711C4.58984 37.457 5.37109 37.75 6.25 37.75H18.75V45.1719L28.6133 37.75H43.75C44.5312 37.75 45.3125 37.457 45.8984 36.8711C46.4844 36.2852 46.875 35.5039 46.875 34.625ZM32.4219 23.3945C32.6172 23.1016 33.0078 22.9062 33.3984 22.9062C33.7891 22.9062 34.1797 23.0039 34.5703 23.2969C34.8633 23.5898 35.0586 23.9805 35.1562 24.3711C35.1562 24.7617 35.0586 25.1523 34.7656 25.4453C33.5938 26.9102 32.1289 27.9844 30.3711 28.7656C28.6133 29.5469 26.8555 29.9375 25 29.9375C23.0469 29.9375 21.2891 29.5469 19.5312 28.7656C17.7734 27.9844 16.4062 26.9102 15.2344 25.4453C14.9414 25.1523 14.8438 24.7617 14.8438 24.3711C14.8438 23.9805 15.0391 23.5898 15.4297 23.2969C15.7227 23.0039 16.1133 22.9062 16.5039 22.9062C16.8945 22.9062 17.2852 23.1016 17.5781 23.3945C18.457 24.5664 19.5312 25.3477 20.8984 25.9336C22.168 26.5195 23.5352 26.8125 25 26.8125C26.3672 26.8125 27.7344 26.5195 29.1016 25.9336C30.3711 25.3477 31.4453 24.5664 32.4219 23.3945ZM18.75 18.2188C18.0664 18.2188 17.4805 18.0234 17.0898 17.5352C16.6016 17.1445 16.4062 16.5586 16.4062 15.875C16.4062 15.2891 16.6016 14.7031 17.0898 14.2148C17.4805 13.8242 18.0664 13.5312 18.75 13.5312C19.3359 13.5312 19.9219 13.8242 20.4102 14.2148C20.8008 14.7031 21.0938 15.2891 21.0938 15.875C21.0938 16.5586 20.8008 17.1445 20.4102 17.5352C19.9219 18.0234 19.3359 18.2188 18.75 18.2188ZM31.25 18.2188C30.5664 18.2188 29.9805 18.0234 29.5898 17.5352C29.1016 17.1445 28.9062 16.5586 28.9062 15.875C28.9062 15.2891 29.1016 14.7031 29.5898 14.2148C29.9805 13.8242 30.5664 13.5312 31.25 13.5312C31.8359 13.5312 32.4219 13.8242 32.9102 14.2148C33.3008 14.7031 33.5938 15.2891 33.5938 15.875C33.5938 16.5586 33.3008 17.1445 32.9102 17.5352C32.4219 18.0234 31.8359 18.2188 31.25 18.2188Z" fill="black"/>
</svg>
