<svg width="63" height="51" viewBox="0 0 63 51" fill="none" xmlns="http://www.w3.org/2000/svg">
<path d="M51.5625 34.625C51.9531 34.625 52.3438 34.8203 52.6367 35.1133C52.9297 35.4062 53.125 35.7969 53.125 36.1875V48.6875C53.125 49.1758 52.9297 49.5664 52.6367 49.8594C52.3438 50.1523 51.9531 50.25 51.5625 50.25H10.9375C10.4492 50.25 10.0586 50.1523 9.76562 49.8594C9.47266 49.5664 9.375 49.1758 9.375 48.6875V23.6875C9.375 23.2969 9.47266 22.9062 9.76562 22.6133C10.0586 22.3203 10.4492 22.125 10.9375 22.125H32.8125C33.2031 22.125 33.5938 22.3203 33.8867 22.6133C34.1797 22.9062 34.375 23.2969 34.375 23.6875V34.625H51.5625ZM31.25 47.125V37.75H12.5V47.125H31.25ZM31.25 34.625V25.25H12.5V34.625H31.25ZM50 47.125V37.75H34.375V47.125H50ZM59.668 11.7734C60.4492 12.1641 61.1328 12.75 61.7188 13.5312C62.207 14.3125 62.5 15.1914 62.5 16.0703V49.4688C62.5 49.6641 62.4023 49.8594 62.207 50.0547C62.0117 50.25 61.9141 50.25 61.7188 50.25H60.1562C59.9609 50.25 59.7656 50.25 59.5703 50.0547C59.375 49.8594 59.375 49.6641 59.375 49.4688V16.168C59.375 15.4844 58.9844 14.9961 58.3984 14.7031L31.8359 3.47266C31.4453 3.27734 31.0547 3.27734 30.6641 3.47266L4.10156 14.7031C3.41797 14.9961 3.125 15.4844 3.125 16.0703V49.4688C3.125 49.6641 3.02734 49.8594 2.83203 50.0547C2.63672 50.25 2.53906 50.25 2.34375 50.25H0.78125C0.585938 50.25 0.390625 50.25 0.195312 50.0547C0 49.8594 0 49.6641 0 49.4688V16.0703C0 15.1914 0.195312 14.3125 0.78125 13.5312C1.26953 12.75 1.95312 12.1641 2.83203 11.7734L29.3945 0.640625C30.5664 0.152344 31.8359 0.152344 33.1055 0.640625L59.668 11.7734Z" fill="black"/>
</svg>
