<svg width="50" height="51" viewBox="0 0 50 51" fill="none" xmlns="http://www.w3.org/2000/svg">
<path d="M49.5117 11.3828C50.0977 13.9219 50.0977 16.4609 49.4141 18.9023C48.7305 21.4414 47.4609 23.5898 45.6055 25.4453C43.75 27.3008 41.6016 28.5703 39.0625 29.2539C36.5234 29.9375 34.082 29.9375 31.543 29.2539L12.6953 48.1016C11.1328 49.5664 9.375 50.25 7.32422 50.25C5.27344 50.25 3.51562 49.5664 2.14844 48.1016C0.683594 46.7344 0 44.9766 0 42.9258C0 40.875 0.683594 39.1172 2.14844 37.5547L21.0938 18.707C20.3125 16.168 20.3125 13.7266 20.9961 11.1875C21.6797 8.64844 22.9492 6.5 24.8047 4.64453C26.5625 2.78906 28.7109 1.51953 31.25 0.835938C33.7891 0.152344 36.2305 0.152344 38.7695 0.738281C39.1602 0.835938 39.5508 1.03125 39.9414 1.42188C40.332 1.8125 40.5273 2.20312 40.7227 2.59375C40.918 3.57031 40.7227 4.44922 40.0391 5.13281L33.7891 11.3828L34.5703 15.6797L38.8672 16.4609L45.1172 10.2109C45.8008 9.52734 46.6797 9.33203 47.6562 9.52734C48.6328 9.82031 49.3164 10.4062 49.5117 11.3828ZM43.457 23.1992C44.8242 21.832 45.7031 20.2695 46.2891 18.5117C46.875 16.7539 46.9727 14.8984 46.6797 13.043L39.9414 19.7812L31.8359 18.4141L30.4688 10.3086L37.207 3.57031C36.5234 3.47266 35.8398 3.375 35.2539 3.375C33.6914 3.375 32.1289 3.66797 30.7617 4.25391C29.3945 4.83984 28.125 5.71875 27.0508 6.79297C25.4883 8.35547 24.4141 10.2109 23.9258 12.3594C23.4375 14.5078 23.5352 16.5586 24.3164 18.707L24.6094 19.5859L4.39453 39.8008C3.51562 40.6797 3.125 41.6562 3.125 42.8281C3.125 44 3.51562 45.0742 4.29688 45.8555C5.07812 46.7344 6.15234 47.125 7.42188 47.125C8.59375 47.125 9.66797 46.7344 10.4492 45.8555L30.6641 25.6406L31.543 25.9336C33.6914 26.7148 35.7422 26.8125 37.8906 26.3242C40.0391 25.8359 41.8945 24.7617 43.457 23.1992ZM7.8125 40.875C8.20312 40.875 8.59375 41.0703 8.88672 41.3633C9.17969 41.6562 9.375 42.0469 9.375 42.4375C9.375 42.9258 9.17969 43.3164 8.88672 43.6094C8.59375 43.9023 8.20312 44 7.8125 44C7.32422 44 6.93359 43.9023 6.64062 43.6094C6.34766 43.3164 6.25 42.9258 6.25 42.4375C6.25 42.0469 6.34766 41.6562 6.64062 41.3633C6.93359 41.0703 7.32422 40.875 7.8125 40.875Z" fill="black"/>
</svg>
